<svg xmlns="http://www.w3.org/2000/svg" viewBox="55.15 15 789.5 716.88">
<g>

<path d="M 302.22 730.55 C292.09,728.10 282.10,722.28 273.76,713.97 C261.90,702.16 257.00,689.89 257.00,672.00 C257.00,660.68 258.76,653.15 263.53,644.07 C268.33,634.95 274.76,627.93 283.73,622.04 C295.66,614.21 301.84,612.49 318.00,612.53 C329.44,612.56 332.49,612.92 338.00,614.85 C363.65,623.87 379.00,645.88 379.00,673.64 C379.00,699.91 360.02,723.73 333.70,730.51 C326.65,732.32 309.63,732.34 302.22,730.55 ZM 331.22 704.13 C342.84,699.12 349.04,689.36 349.79,674.90 C350.68,657.49 345.07,647.04 331.04,639.99 C325.34,637.12 313.84,636.80 306.50,639.29 C292.30,644.12 283.84,658.35 285.33,674.89 C286.82,691.36 293.19,700.15 307.31,705.21 C313.83,707.54 324.42,707.07 331.22,704.13 ZM 720.85 728.63 C701.19,722.81 685.61,706.84 680.59,687.36 C679.64,683.68 679.00,677.06 679.00,670.85 C679.00,653.55 683.45,641.93 694.65,630.02 C712.80,610.70 741.94,605.61 765.72,617.60 C773.29,621.42 785.00,631.44 785.00,634.10 C785.00,634.96 781.32,638.03 776.82,640.93 C764.07,649.15 764.95,649.03 758.40,643.64 C751.32,637.81 744.11,635.49 735.73,636.37 C723.72,637.63 715.31,643.59 710.33,654.37 C707.79,659.89 707.51,661.55 707.54,671.00 C707.57,680.39 707.88,682.16 710.45,687.80 C713.99,695.58 720.96,702.16 728.18,704.56 C737.50,707.66 754.60,705.39 760.21,700.31 C761.59,699.06 762.00,697.15 762.00,691.93 L 762.00 685.18 L 757.99 684.50 C755.79,684.13 750.95,683.91 747.24,684.02 C735.98,684.36 737.00,685.40 737.00,673.50 L 737.00 663.00 L 761.92 663.00 L 786.84 663.00 L 787.47 669.25 C787.81,672.69 787.92,683.06 787.70,692.30 L 787.31 709.10 L 783.41 713.15 C775.63,721.21 763.08,727.90 751.65,730.07 C742.82,731.74 729.22,731.11 720.85,728.63 ZM 117.00 672.50 L 117.00 615.00 L 131.96 615.00 C146.48,615.00 146.96,615.07 148.08,617.25 C153.83,628.45 177.49,667.90 178.09,667.29 C178.52,666.86 184.02,657.50 190.31,646.50 C196.60,635.50 203.25,623.91 205.09,620.75 L 208.42 615.00 L 222.71 615.00 L 237.00 615.00 L 237.00 672.50 L 237.00 730.00 L 224.51 730.00 L 212.02 730.00 L 211.76 693.75 L 211.50 657.50 L 207.71 663.50 C205.63,666.80 201.03,674.22 197.50,680.00 C186.35,698.21 177.52,711.97 176.97,711.99 C176.67,711.99 175.58,710.54 174.55,708.75 C172.22,704.74 158.79,682.87 150.64,669.82 C147.31,664.49 144.23,660.36 143.79,660.63 C143.36,660.90 143.00,676.62 143.00,695.56 L 143.00 730.00 L 130.00 730.00 L 117.00 730.00 L 117.00 672.50 ZM 422.87 727.25 C421.51,723.77 415.19,706.79 413.29,701.50 C410.66,694.20 389.94,638.67 385.94,628.20 C383.77,622.54 382.00,617.31 382.00,616.58 C382.00,615.85 383.41,614.97 385.12,614.62 C388.95,613.86 405.74,613.82 408.50,614.57 C410.11,615.01 412.45,620.68 420.38,643.31 C438.18,694.08 439.20,696.67 440.26,693.92 C441.41,690.96 451.88,661.47 453.02,658.00 C453.47,656.62 457.02,646.30 460.92,635.06 C464.81,623.81 468.00,614.47 468.00,614.31 C468.00,614.14 474.30,614.00 482.00,614.00 C489.70,614.00 496.00,614.36 496.00,614.81 C496.00,615.25 493.93,621.22 491.41,628.06 C481.31,655.39 464.43,700.91 457.39,719.75 L 453.56 730.00 L 438.76 730.00 L 423.95 730.00 L 422.87 727.25 ZM 512.57 725.25 C512.07,721.32 512.15,698.25 512.95,619.22 L 513.00 613.94 L 526.25 614.22 L 539.50 614.50 L 539.79 668.00 C539.95,697.42 539.81,723.41 539.48,725.75 L 538.88 730.00 L 526.03 730.00 L 513.19 730.00 L 512.57 725.25 ZM 564.00 672.00 L 564.00 614.00 L 576.94 614.00 L 589.87 614.00 L 592.51 617.75 C593.95,619.81 599.35,628.03 604.49,636.00 C609.63,643.97 618.49,657.63 624.17,666.35 L 634.50 682.21 L 635.19 678.35 C635.57,676.23 635.91,660.87 635.94,644.22 L 636.00 613.94 L 648.75 614.22 L 661.50 614.50 L 661.50 672.00 L 661.50 729.50 L 649.00 729.77 L 636.50 730.03 L 632.34 723.77 C630.06,720.32 621.87,707.83 614.14,696.00 C606.42,684.17 598.17,671.71 595.80,668.29 C591.62,662.25 591.48,662.16 590.87,664.79 C590.52,666.28 590.18,681.56 590.12,698.75 L 590.00 730.00 L 577.00 730.00 L 564.00 730.00 L 564.00 672.00 ZM 55.51 587.75 C55.19,585.96 55.06,559.53 55.21,529.00 L 55.50 473.50 L 93.75 473.24 L 132.00 472.98 L 132.00 485.49 L 132.00 498.00 L 108.00 498.00 L 84.00 498.00 L 84.00 509.50 L 84.00 521.00 L 104.39 521.00 C122.07,521.00 124.87,521.21 125.39,522.58 C125.73,523.45 126.00,528.36 126.00,533.50 C126.00,538.64 125.73,543.55 125.39,544.42 C124.87,545.79 122.07,546.00 104.39,546.00 L 84.00 546.00 L 84.00 568.50 L 84.00 591.00 L 70.05 591.00 L 56.09 591.00 L 55.51 587.75 ZM 131.00 590.04 C131.00,589.51 135.12,578.15 140.16,564.79 C145.20,551.43 154.99,525.42 161.91,507.00 L 174.50 473.50 L 189.67 473.22 L 204.84 472.95 L 206.84 478.22 C207.93,481.13 210.94,488.90 213.50,495.50 C216.07,502.10 222.16,518.08 227.04,531.00 C231.91,543.92 238.84,562.10 242.45,571.39 C246.05,580.68 249.00,588.90 249.00,589.66 C249.00,590.80 246.31,591.00 234.28,590.78 L 219.57 590.50 L 215.53 579.74 L 211.50 568.99 L 189.52 569.24 L 167.55 569.50 L 163.54 580.25 L 159.54 591.00 L 145.27 591.00 C136.83,591.00 131.00,590.61 131.00,590.04 ZM 202.55 542.25 C201.51,537.97 190.89,508.60 190.06,507.71 C189.47,507.08 179.72,532.38 176.55,542.75 L 175.87 545.00 L 189.54 545.00 L 203.22 545.00 L 202.55 542.25 ZM 265.00 532.05 L 265.00 473.09 L 268.42 472.45 C270.30,472.10 276.39,471.96 281.96,472.15 C289.58,472.41 292.31,472.87 293.02,474.00 C294.07,475.66 294.40,582.73 293.38,587.88 L 292.75 591.00 L 278.88 591.00 L 265.00 591.00 L 265.00 532.05 ZM 317.67 590.33 C317.30,589.97 317.00,563.44 317.00,531.38 L 317.00 473.09 L 320.50 472.43 C322.43,472.07 335.14,471.98 348.75,472.24 C370.47,472.65 374.30,472.96 380.05,474.83 C392.25,478.79 402.20,488.10 405.18,498.34 C405.85,500.63 406.39,506.55 406.39,511.50 C406.38,519.41 406.03,521.21 403.48,526.35 C400.31,532.75 393.90,539.06 387.31,542.29 C382.29,544.75 381.51,542.70 395.82,564.50 C401.60,573.30 407.56,582.59 409.07,585.14 L 411.82 589.79 L 408.79 590.39 C407.12,590.73 400.24,591.00 393.50,591.00 C383.69,591.00 380.99,590.69 379.97,589.46 C379.27,588.62 375.72,583.02 372.10,577.02 C368.47,571.02 363.02,562.04 360.00,557.07 L 354.50 548.03 L 350.25 548.02 L 346.00 548.00 L 346.00 567.57 C346.00,579.14 345.58,587.92 344.96,589.07 C344.02,590.82 342.76,591.00 331.13,591.00 C324.09,591.00 318.03,590.70 317.67,590.33 ZM 367.06 524.00 C378.80,520.74 380.47,503.90 369.59,498.59 C366.86,497.26 362.71,496.54 355.84,496.21 L 346.00 495.73 L 346.00 510.37 L 346.00 525.00 L 354.75 524.99 C359.56,524.99 365.10,524.54 367.06,524.00 ZM 431.25 590.36 C430.27,589.95 430.00,577.09 430.00,530.88 L 430.00 471.93 L 457.25 472.29 C481.50,472.61 485.18,472.87 490.71,474.71 C502.82,478.72 510.98,485.40 515.36,494.88 C517.14,498.72 517.50,501.37 517.50,510.60 C517.50,521.30 517.38,521.93 514.00,528.54 C509.86,536.66 503.14,542.64 494.34,546.06 C489.52,547.93 485.79,548.43 473.00,548.91 L 457.50 549.50 L 457.00 570.13 L 456.50 590.77 L 444.50 590.83 C437.90,590.86 431.94,590.65 431.25,590.36 ZM 481.99 524.43 C487.42,521.25 489.51,517.61 489.45,511.43 C489.39,505.23 487.32,501.69 481.90,498.51 C479.22,496.94 476.21,496.44 467.75,496.15 L 457.00 495.78 L 457.00 511.52 L 457.00 527.26 L 467.85 526.81 C476.17,526.47 479.46,525.91 481.99,524.43 ZM 540.35 590.28 C538.14,590.01 537.03,589.23 536.62,587.69 C535.82,584.73 535.83,479.08 536.63,475.10 L 537.26 471.95 L 551.38 472.22 L 565.50 472.50 L 565.76 518.75 L 566.02 565.00 L 589.01 565.00 L 612.00 565.00 L 612.00 577.34 L 612.00 589.68 L 593.25 590.34 C573.96,591.01 545.92,590.98 540.35,590.28 ZM 627.25 590.27 C625.46,590.05 624.00,589.64 624.00,589.36 C624.00,589.08 627.79,578.87 632.42,566.68 C641.69,542.28 661.74,489.38 665.74,478.75 L 668.29 472.00 L 682.93 472.00 L 697.57 472.00 L 705.44 492.25 C709.77,503.39 715.02,517.00 717.12,522.50 C728.70,552.95 738.32,578.09 740.04,582.38 C743.23,590.34 743.79,590.00 727.59,590.00 L 713.19 590.00 L 710.21 582.75 C708.58,578.76 706.70,573.81 706.04,571.75 L 704.84 568.00 L 683.17 568.00 L 661.50 568.00 L 657.64 579.00 L 653.77 590.00 L 643.47 590.00 C637.80,590.00 632.56,590.15 631.83,590.33 C631.10,590.52 629.04,590.49 627.25,590.27 ZM 695.50 539.75 C693.50,533.25 685.17,510.13 684.21,508.42 C683.53,507.20 683.11,507.45 682.07,509.70 C679.52,515.21 670.06,541.89 670.01,543.75 C670.00,543.89 676.03,544.00 683.40,544.00 L 696.80 544.00 L 695.50 539.75 ZM 772.63 587.75 C772.30,586.51 772.02,575.86 772.01,564.08 L 772.00 542.67 L 767.32 535.08 C764.74,530.91 756.94,518.50 749.98,507.50 C743.01,496.50 735.20,484.12 732.61,480.00 L 727.90 472.50 L 744.63 472.23 C753.82,472.07 761.69,472.30 762.10,472.73 C762.52,473.15 767.89,482.95 774.04,494.50 C780.20,506.05 785.56,515.86 785.95,516.29 C786.35,516.72 792.07,507.05 798.66,494.79 L 810.65 472.50 L 824.22 471.74 C831.68,471.33 839.33,471.33 841.22,471.74 L 844.65 472.50 L 841.27 478.00 C839.40,481.02 836.22,486.06 834.19,489.19 C832.16,492.31 825.85,502.21 820.18,511.19 C814.50,520.16 807.66,530.88 804.99,535.00 L 800.12 542.50 L 800.06 566.25 L 800.00 590.00 L 786.62 590.00 C773.58,590.00 773.22,589.94 772.63,587.75 ZM 284.51 449.42 C273.79,447.30 265.59,442.79 257.50,434.58 C245.96,422.88 241.00,410.87 241.00,394.66 C241.00,378.80 246.12,366.57 257.38,355.50 C265.10,347.92 272.02,343.98 282.20,341.37 C290.96,339.13 306.32,339.91 314.50,343.02 C331.19,349.37 343.86,363.53 348.52,381.05 C350.35,387.92 350.40,402.91 348.61,409.61 C343.34,429.41 326.59,445.28 306.50,449.50 C298.07,451.27 293.72,451.25 284.51,449.42 ZM 307.57 420.22 C312.75,417.58 318.37,411.37 320.11,406.38 C320.85,404.25 321.44,399.35 321.43,395.50 C321.37,379.35 311.11,368.72 295.50,368.65 C284.16,368.59 276.70,373.08 271.28,383.21 C268.44,388.52 268.13,399.70 270.64,406.23 C272.92,412.13 279.43,418.62 285.47,421.02 C291.90,423.58 301.69,423.22 307.57,420.22 ZM 359.56 418.62 C360.84,414.56 362.21,408.93 362.58,406.10 C362.96,403.27 363.54,400.78 363.88,400.57 C364.42,400.24 379.96,396.77 404.50,391.49 C408.35,390.66 417.58,388.65 425.00,387.03 C432.42,385.40 444.80,382.72 452.50,381.07 C460.20,379.41 472.71,376.69 480.29,375.03 C487.87,373.36 494.74,372.00 495.54,372.00 C497.65,372.00 497.39,378.55 495.08,383.64 C492.64,389.00 486.75,395.48 481.51,398.54 C475.73,401.93 470.85,403.09 404.00,416.98 C388.33,420.23 372.21,423.59 368.18,424.45 C356.39,426.95 356.82,427.24 359.56,418.62 ZM 475.87 422.19 C473.00,420.18 473.64,418.29 477.43,417.58 C484.27,416.30 494.45,410.24 500.69,403.75 C507.44,396.71 510.31,391.76 512.50,383.32 C514.60,375.28 514.38,369.36 511.56,358.18 C510.22,352.86 508.62,344.67 507.99,340.00 C507.21,334.15 505.65,328.76 502.98,322.74 C500.62,317.41 498.71,311.15 498.09,306.74 C497.54,302.76 496.16,296.63 495.04,293.12 C493.18,287.30 493.00,284.19 493.00,257.87 L 493.00 229.00 L 497.00 229.00 L 501.00 229.00 L 501.00 219.00 L 501.00 209.00 L 506.35 209.00 L 511.69 209.00 L 512.35 196.84 C512.71,190.16 513.00,181.38 513.00,177.34 C513.00,171.76 513.33,170.00 514.38,170.00 C516.51,170.00 516.97,173.31 516.99,188.62 C516.99,196.39 517.28,204.16 517.62,205.88 C518.20,208.73 518.59,209.00 522.12,209.00 L 526.00 209.00 L 526.12 217.50 C526.19,222.18 526.31,226.56 526.38,227.25 C526.45,228.01 528.37,228.62 531.25,228.80 L 536.00 229.11 L 536.00 258.05 L 536.00 287.00 L 544.49 287.00 L 552.98 287.00 L 553.24 247.75 L 553.50 208.50 L 556.25 208.18 L 559.00 207.87 L 559.00 172.93 L 559.00 138.00 L 563.42 138.00 C571.52,138.00 571.00,139.86 571.00,110.97 C571.00,96.78 571.27,84.45 571.61,83.58 C572.03,82.48 573.51,82.00 576.50,82.00 L 580.79 82.00 L 581.46 66.25 C581.83,57.59 582.54,43.97 583.05,36.00 C583.56,28.02 583.98,20.04 583.98,18.25 C583.99,16.46 584.38,15.00 584.85,15.00 C585.32,15.00 586.02,18.94 586.40,23.75 C587.26,34.69 589.95,76.72 589.98,79.75 C590.00,81.74 590.51,82.00 594.38,82.00 C598.08,82.00 598.86,82.35 599.37,84.25 C599.70,85.49 599.98,97.84 599.99,111.70 L 600.00 136.89 L 604.75 137.20 L 609.50 137.50 L 610.05 172.50 C610.35,191.75 610.68,207.61 610.80,207.75 C610.91,207.89 612.58,208.00 614.50,208.00 L 618.00 208.00 L 618.00 255.81 C618.00,307.27 618.03,307.55 623.06,306.84 C625.43,306.51 625.51,306.24 625.79,296.75 L 626.07 287.00 L 634.54 287.00 L 643.00 287.00 L 643.00 316.50 L 643.00 346.00 L 657.50 346.00 L 672.00 346.00 L 672.00 290.07 L 672.00 234.13 L 674.75 233.82 L 677.50 233.50 L 677.78 217.75 L 678.05 202.00 L 681.03 202.00 L 684.00 202.00 L 684.00 193.47 C684.00,188.52 684.57,183.56 685.36,181.67 C687.11,177.49 692.01,173.38 697.02,171.88 L 700.96 170.70 L 701.23 153.10 C701.46,138.24 701.73,135.50 703.00,135.50 C704.27,135.50 704.54,138.24 704.77,153.06 L 705.04 170.62 L 709.92 172.68 C717.58,175.92 720.15,180.63 720.78,192.51 L 721.27 202.00 L 725.11 202.00 L 728.95 202.00 L 729.22 217.75 C729.50,233.23 729.54,233.51 731.75,233.82 L 734.00 234.14 L 734.00 290.07 L 734.00 346.00 L 740.00 346.00 L 746.00 346.00 L 746.01 330.75 C746.03,311.87 746.23,311.00 750.49,311.00 C752.28,311.00 755.16,310.72 756.88,310.38 L 760.00 309.75 L 760.00 302.88 L 760.00 296.00 L 766.50 296.00 L 773.00 296.00 L 773.00 321.00 L 773.00 346.00 L 778.36 346.00 L 783.72 346.00 L 784.33 353.25 C785.07,361.96 784.73,421.60 783.95,422.39 C783.64,422.69 714.62,423.07 630.56,423.22 C506.03,423.45 477.39,423.26 475.87,422.19 ZM 159.55 418.15 C160.90,416.94 171.93,413.04 191.00,407.03 C220.16,397.83 226.45,396.05 227.14,396.78 C227.51,397.18 227.97,399.96 228.16,402.97 L 228.50 408.43 L 223.00 409.67 C216.31,411.17 202.52,413.27 178.00,416.53 C156.47,419.38 158.35,419.22 159.55,418.15 ZM 95.00 395.04 C99.68,393.48 109.80,390.32 117.50,388.02 C125.20,385.73 136.23,382.35 142.00,380.52 C147.77,378.68 158.35,375.51 165.50,373.47 C172.65,371.42 184.35,368.04 191.50,365.95 C228.39,355.15 241.04,351.70 241.61,352.28 C241.78,352.45 240.93,354.15 239.71,356.04 C238.50,357.94 236.15,362.20 234.50,365.50 L 231.50 371.50 L 221.00 373.69 C215.23,374.90 197.23,378.41 181.00,381.49 C164.77,384.58 143.40,388.64 133.50,390.52 C109.59,395.06 91.82,398.01 88.89,397.94 C87.58,397.91 90.32,396.60 95.00,395.04 ZM 362.45 383.25 C361.32,377.95 356.80,365.46 354.49,361.27 L 352.17 357.05 L 355.83 356.03 C359.78,354.92 367.87,353.12 421.00,341.46 C471.46,330.39 482.85,328.00 485.01,328.00 C488.11,328.00 489.73,331.77 491.44,343.00 C492.33,348.77 493.30,354.65 493.60,356.06 C494.15,358.59 494.01,358.65 483.33,360.88 C471.67,363.30 430.64,372.14 420.00,374.51 C416.42,375.31 408.21,377.10 401.75,378.47 C395.28,379.85 384.88,382.11 378.63,383.49 C364.04,386.71 363.19,386.70 362.45,383.25 ZM 116.16 349.51 C116.97,348.69 150.47,337.56 201.50,321.13 C231.26,311.55 238.75,309.42 239.61,310.28 C240.11,310.78 243.94,324.70 243.98,326.15 C244.00,326.98 234.35,329.07 210.00,333.49 C199.27,335.44 186.23,337.90 181.00,338.95 C175.77,340.00 162.27,342.49 151.00,344.49 C139.73,346.48 128.34,348.54 125.70,349.06 C120.55,350.07 115.35,350.31 116.16,349.51 ZM 337.50 340.87 C326.91,332.47 312.05,327.00 299.84,327.00 C293.90,327.00 292.93,326.72 291.19,324.51 C286.88,319.04 287.87,311.07 293.27,307.58 C295.13,306.39 323.33,300.74 364.00,293.42 C368.67,292.58 375.65,291.26 379.50,290.49 C383.35,289.72 396.85,287.24 409.50,284.99 C422.15,282.74 436.94,280.02 442.36,278.95 C455.18,276.41 457.57,276.49 463.81,279.59 C470.21,282.78 474.17,287.46 477.49,295.76 C480.20,302.53 481.87,313.35 480.34,314.29 C479.37,314.89 372.62,338.57 344.50,344.42 C343.24,344.69 340.65,343.38 337.50,340.87 ZM 259.54 334.85 C259.05,333.47 248.16,289.03 230.04,214.50 C224.42,191.40 219.28,170.74 218.61,168.58 L 217.39 164.66 L 192.44 158.00 C178.72,154.34 166.51,150.81 165.30,150.16 C161.69,148.23 160.00,144.89 160.00,139.70 C160.00,135.70 160.50,134.35 162.85,132.00 C167.61,127.23 170.72,127.29 189.60,132.50 C226.09,142.58 229.43,143.92 234.75,150.74 C239.05,156.23 240.13,159.76 249.94,200.50 C259.12,238.62 263.84,258.09 273.97,299.50 C277.20,312.70 279.99,324.54 280.17,325.81 C280.46,327.88 279.57,328.49 272.00,331.42 C267.33,333.22 262.72,335.04 261.76,335.46 C260.64,335.94 259.85,335.72 259.54,334.85 ZM 149.14 298.53 C150.53,297.14 188.74,284.26 214.31,276.56 C228.88,272.17 230.75,272.08 231.58,275.75 C231.92,277.26 232.64,280.23 233.17,282.35 C233.70,284.47 233.97,286.36 233.77,286.56 C233.57,286.76 222.63,288.49 209.46,290.41 C196.28,292.33 177.85,295.05 168.50,296.45 C151.11,299.05 148.31,299.35 149.14,298.53 ZM 300.00 288.87 C300.00,287.70 301.31,284.44 302.90,281.62 C306.90,274.57 311.60,260.78 313.58,250.27 C314.80,243.80 315.09,238.36 314.70,229.50 C313.95,212.77 310.85,201.94 304.36,193.41 C301.52,189.67 301.36,187.41 303.87,186.07 C304.89,185.52 310.63,184.18 316.62,183.10 C333.91,179.96 386.97,170.18 392.91,169.04 C395.89,168.46 398.58,168.25 398.89,168.56 C399.20,168.87 399.49,175.96 399.54,184.31 C399.60,197.33 399.94,200.50 401.91,206.50 C408.51,226.59 414.90,237.02 429.65,251.78 C436.98,259.12 440.72,263.58 440.35,264.53 C440.04,265.34 439.69,266.00 439.58,266.00 C438.55,266.00 388.97,274.93 372.54,278.08 C323.62,287.45 304.37,290.99 302.25,290.99 C300.62,291.00 300.00,290.41 300.00,288.87 ZM 287.20 171.44 C277.36,168.79 271.14,164.10 267.64,156.71 C265.06,151.25 259.68,123.31 261.05,122.47 C262.35,121.66 286.85,117.00 289.77,117.00 C292.55,117.00 292.61,117.12 294.76,128.14 C295.96,134.26 297.14,139.47 297.39,139.72 C298.01,140.34 321.32,135.93 322.34,134.99 C322.80,134.57 322.48,130.69 321.62,126.36 C320.76,122.04 319.93,116.71 319.78,114.53 L 319.50 110.55 L 335.44 107.33 C344.20,105.56 352.97,103.98 354.91,103.81 L 358.44 103.50 L 360.74 115.44 C362.01,122.01 363.21,127.55 363.42,127.75 C363.63,127.96 366.20,127.64 369.15,127.05 C372.09,126.46 377.42,125.47 381.00,124.85 C384.58,124.23 387.88,123.38 388.34,122.97 C388.81,122.55 388.24,117.39 387.09,111.50 C385.94,105.61 385.00,100.20 385.00,99.47 C385.00,98.67 387.10,97.72 390.25,97.07 C393.14,96.49 399.95,95.09 405.38,93.97 C410.82,92.85 415.42,92.09 415.62,92.28 C415.81,92.48 417.36,100.03 419.06,109.07 C423.20,131.07 422.31,135.76 412.24,145.18 C403.99,152.90 399.57,154.42 369.50,159.90 C363.45,161.00 345.12,164.40 328.77,167.45 C312.41,170.50 297.56,172.97 295.77,172.93 C293.97,172.90 290.11,172.23 287.20,171.44 Z" fill="rgb(225,120,36)" data-index="1" style="opacity: 1;"/>
</g>
</svg>